<svg width="32" height="40" viewBox="0 0 32 40" fill="none" xmlns="http://www.w3.org/2000/svg">
<path d="M6 1L1 8.45839V34.5627C1 35.5518 1.35119 36.5003 1.97631 37.1997C2.60143 37.899 3.44928 38.2919 4.33333 38.2919H27.6667C28.5507 38.2919 29.3986 37.899 30.0237 37.1997C30.6488 36.5003 31 35.5518 31 34.5627V8.45839L26 1H6Z" stroke="white" stroke-width="2" stroke-linecap="round" stroke-linejoin="round"/>
<path d="M1 8.45801H31" stroke="white" stroke-width="2" stroke-linecap="round" stroke-linejoin="round"/>
<path d="M22.6668 15.917C22.6668 17.8951 21.9644 19.7922 20.7142 21.1909C19.464 22.5896 17.7683 23.3754 16.0002 23.3754C14.232 23.3754 12.5364 22.5896 11.2861 21.1909C10.0359 19.7922 9.3335 17.8951 9.3335 15.917" stroke="white" stroke-width="2" stroke-linecap="round" stroke-linejoin="round"/>
</svg>
